<svg width="24" height="24" viewBox="0 0 24 24" fill="none" xmlns="http://www.w3.org/2000/svg">
<g clip-path="url(#clip0)">
<path d="M21.7442 5.36444L21.2143 3.776C21.0125 3.17102 20.4483 2.76453 19.8108 2.76453H15.3571V1.31451C15.3571 0.589783 14.7678 0 14.0433 0H9.96481C9.24044 0 8.65103 0.589783 8.65103 1.31451V2.76453H4.19754C3.55978 2.76453 2.99563 3.17102 2.79385 3.776L2.26394 5.36444C2.14328 5.72607 2.20443 6.12653 2.42727 6.43579C2.65011 6.74506 3.01065 6.92981 3.39187 6.92981H3.94577L5.16488 22.0051C5.25552 23.1237 6.20474 24 7.32626 24H16.9292C18.0506 24 19 23.1237 19.0904 22.0049L20.3095 6.92981H20.6162C20.9975 6.92981 21.358 6.74506 21.5808 6.43597C21.8037 6.12671 21.8648 5.72607 21.7442 5.36444ZM10.0573 1.40625H13.9508V2.76453H10.0573V1.40625ZM17.6887 21.8915C17.6569 22.2854 17.3233 22.5938 16.9292 22.5938H7.32626C6.93222 22.5938 6.5986 22.2854 6.56674 21.8915L5.35659 6.92981H18.8987L17.6887 21.8915ZM3.69345 5.52356L4.12796 4.22095C4.13784 4.19092 4.16586 4.17078 4.19754 4.17078H19.8108C19.8424 4.17078 19.8703 4.19092 19.8803 4.22095L20.3148 5.52356H3.69345Z" fill="black"/>
<path d="M15.4459 21.8416C15.4583 21.8423 15.4706 21.8425 15.483 21.8425C15.8545 21.8425 16.1651 21.5514 16.1845 21.176L16.8448 8.50108C16.8649 8.11326 16.5668 7.78239 16.1792 7.76224C15.7905 7.74155 15.4607 8.04002 15.4404 8.42783L14.7803 21.1028C14.7601 21.4906 15.058 21.8214 15.4459 21.8416Z" fill="black"/>
<path d="M7.85457 21.178C7.87507 21.5528 8.18525 21.8429 8.55604 21.8429C8.56886 21.8429 8.58204 21.8425 8.59504 21.8418C8.98268 21.8207 9.27986 21.4893 9.2588 21.1015L8.56721 8.42655C8.54615 8.03873 8.21473 7.74155 7.82692 7.76279C7.43928 7.78385 7.14211 8.11527 7.16316 8.50309L7.85457 21.178Z" fill="black"/>
<path d="M12.0117 21.8429C12.4001 21.8429 12.7148 21.5281 12.7148 21.1398V8.46484C12.7148 8.07648 12.4001 7.76172 12.0117 7.76172C11.6234 7.76172 11.3086 8.07648 11.3086 8.46484V21.1398C11.3086 21.5281 11.6234 21.8429 12.0117 21.8429Z" fill="black"/>
</g>
<defs>
<clipPath id="clip0">
<path d="M0 0H24V24H0V0Z" fill="white"/>
</clipPath>
</defs>
</svg>
